<svg xmlns="http://www.w3.org/2000/svg" height="48" viewBox="0 96 960 960" width="48">
<style>
    .white{
        fill:white;
    }
</style>
<path class="white" d="M480.08 323q-29.58 0-50.83-21.17Q408 280.659 408 251.08q0-29.58 21.17-50.83Q450.341 179 479.92 179q29.58 0 50.83 21.17Q552 221.341 552 250.92q0 29.58-21.17 50.83Q509.659 323 480.08 323ZM375.5 972V442.5q-67.5-5-130.5-13.75T124.5 406l14.5-57.5q84 20 166.75 28.25T480 385q91.5 0 174.25-8.25T821 348.5l14.5 57.5Q778 420 715 428.75t-130.5 13.874V972H527V713.5h-94V972h-57.5Z"/></svg>